<svg width="150" height="40" viewBox="0 0 150 40" fill="none" xmlns="http://www.w3.org/2000/svg">
<path d="M54.0838 7.94753H57.5204C58.4261 7.94753 58.879 8.28189 58.879 8.95062C58.879 9.61934 58.4261 9.9537 57.5204 9.9537H54.0838V7.94753ZM54.0838 14.3673H57.3405C59.5384 14.3673 61.2167 13.8858 62.3756 12.9228C63.5078 12 64.0739 10.6759 64.0739 8.95062C64.0739 7.22531 63.5078 5.90123 62.3756 4.9784C61.2167 4.01543 59.5384 3.53395 57.3405 3.53395H48.8889V17.5772H54.0838V14.3673Z" fill="white"/>
<path d="M77.4622 3.53395V8.24846H70.669V3.53395H65.4741V17.5772H70.669V12.8627H77.4622V17.5772H82.6571V3.53395H77.4622Z" fill="white"/>
<path d="M84.6544 17.5772H89.8492V3.53395H84.6544V17.5772Z" fill="white"/>
<path d="M103.842 3.53395V11.0571L97.8484 3.53395H91.8543V17.5772H97.0492V10.054L103.043 17.5772H109.037V3.53395H103.842Z" fill="white"/>
<path d="M119.526 13.3642C116.995 13.3642 115.73 12.428 115.73 10.5556C115.73 8.68313 116.995 7.74691 119.526 7.74691C122.057 7.74691 123.322 8.68313 123.322 10.5556C123.322 12.428 122.057 13.3642 119.526 13.3642ZM119.526 3.33333C116.582 3.33333 114.338 3.96862 112.793 5.2392C111.288 6.48303 110.535 8.25515 110.535 10.5556C110.535 12.856 111.288 14.6281 112.793 15.8719C114.338 17.1425 116.582 17.7778 119.526 17.7778C122.47 17.7778 124.714 17.1425 126.26 15.8719C127.765 14.6281 128.517 12.856 128.517 10.5556C128.517 8.25515 127.765 6.48303 126.26 5.2392C124.714 3.96862 122.47 3.33333 119.526 3.33333Z" fill="white"/>
<path d="M144.805 3.53395L140.01 9.55247L135.215 3.53395H130.02V17.5772H135.215V11.1574L140.01 17.1759L144.805 11.1574V17.5772H150V3.53395H144.805Z" fill="white"/>
<path d="M54.225 32.0525V26.8364H57.3651C59.65 26.8364 60.7925 27.7058 60.7925 29.4444C60.7925 31.1831 59.65 32.0525 57.3651 32.0525H54.225ZM48.8889 22.4228V36.466H57.3651C60.2794 36.466 62.4823 35.8441 63.9737 34.6003C65.4103 33.41 66.1286 31.6914 66.1286 29.4444C66.1286 27.1975 65.4103 25.4789 63.9737 24.2886C62.4823 23.0448 60.2794 22.4228 57.3651 22.4228H48.8889Z" fill="url(#paint0_linear_119_39)"/>
<path d="M67.6687 36.466H73.0048V22.4228H67.6687V36.466Z" fill="url(#paint1_linear_119_39)"/>
<path d="M83.7869 28.2407V31.25H87.1938C86.5644 32.1862 85.4287 32.6543 83.7869 32.6543C81.1872 32.6543 79.8874 31.5844 79.8874 29.4444C79.8874 27.3045 81.1872 26.2346 83.7869 26.2346C85.2919 26.2346 86.3728 26.6358 87.0296 27.4383H92.7556C92.3315 25.7665 91.3737 24.4892 89.8823 23.6065C88.3499 22.6836 86.3181 22.2222 83.7869 22.2222C80.7631 22.2222 78.4576 22.8575 76.8704 24.1281C75.3243 25.3719 74.5513 27.144 74.5513 29.4444C74.5513 31.7449 75.3243 33.517 76.8704 34.7608C78.4576 36.0314 80.7631 36.6667 83.7869 36.6667C86.8107 36.6667 89.1161 36.0314 90.7033 34.7608C92.2494 33.517 93.0224 31.7449 93.0224 29.4444C93.0224 29.1502 92.9882 28.749 92.9198 28.2407H83.7869Z" fill="url(#paint2_linear_119_39)"/>
<path d="M94.5657 36.466H99.9018V22.4228H94.5657V36.466Z" fill="url(#paint3_linear_119_39)"/>
<path d="M101.14 22.4228V26.8364H106.477V36.466H111.813V26.8364H117.149V22.4228H101.14Z" fill="url(#paint4_linear_119_39)"/>
<path d="M121.463 22.4228L115.306 36.466H120.847L121.894 34.0586H128.831L129.877 36.466H135.419L129.262 22.4228H121.463ZM125.362 26.1744L127.23 30.4475H123.495L125.362 26.1744Z" fill="url(#paint5_linear_119_39)"/>
<path d="M136.454 22.4228V36.466H150V32.0525H141.791V22.4228H136.454Z" fill="url(#paint6_linear_119_39)"/>
<path d="M10.1137 37.3896L10.1137 20C10.1137 14.5399 14.54 10.1136 20.0001 10.1136C25.4602 10.1136 29.8865 14.5399 29.8865 20C29.8865 24.5645 26.7931 28.4065 22.5885 29.544C21.3055 29.8911 20.2274 30.9455 20.2274 32.2746V37.526C20.2274 38.8872 21.3444 40.0018 22.6934 39.8202C32.4654 38.5048 40 30.1323 40 20C40 8.9543 31.0457 0 20 0C8.9543 0 0 8.9543 0 20V37.5547C0 38.9052 1.09482 40 2.44534 40H9.1446C9.67979 40 10.1136 39.5662 10.1136 39.031L10.1137 37.3896Z" fill="url(#paint7_linear_119_39)"/>
<defs>
<linearGradient id="paint0_linear_119_39" x1="20" y1="0" x2="20" y2="40" gradientUnits="userSpaceOnUse">
<stop stop-color="#08CBD4"/>
<stop offset="1" stop-color="#007378"/>
</linearGradient>
<linearGradient id="paint1_linear_119_39" x1="20" y1="0" x2="20" y2="40" gradientUnits="userSpaceOnUse">
<stop stop-color="#08CBD4"/>
<stop offset="1" stop-color="#007378"/>
</linearGradient>
<linearGradient id="paint2_linear_119_39" x1="20" y1="0" x2="20" y2="40" gradientUnits="userSpaceOnUse">
<stop stop-color="#08CBD4"/>
<stop offset="1" stop-color="#007378"/>
</linearGradient>
<linearGradient id="paint3_linear_119_39" x1="20" y1="0" x2="20" y2="40" gradientUnits="userSpaceOnUse">
<stop stop-color="#08CBD4"/>
<stop offset="1" stop-color="#007378"/>
</linearGradient>
<linearGradient id="paint4_linear_119_39" x1="20" y1="0" x2="20" y2="40" gradientUnits="userSpaceOnUse">
<stop stop-color="#08CBD4"/>
<stop offset="1" stop-color="#007378"/>
</linearGradient>
<linearGradient id="paint5_linear_119_39" x1="20" y1="0" x2="20" y2="40" gradientUnits="userSpaceOnUse">
<stop stop-color="#08CBD4"/>
<stop offset="1" stop-color="#007378"/>
</linearGradient>
<linearGradient id="paint6_linear_119_39" x1="20" y1="0" x2="20" y2="40" gradientUnits="userSpaceOnUse">
<stop stop-color="#08CBD4"/>
<stop offset="1" stop-color="#007378"/>
</linearGradient>
<linearGradient id="paint7_linear_119_39" x1="20" y1="0" x2="20" y2="40" gradientUnits="userSpaceOnUse">
<stop stop-color="#08CBD4"/>
<stop offset="1" stop-color="#007378"/>
</linearGradient>
</defs>
</svg>
