<svg width="32" height="32" viewBox="0 0 32 32" fill="none" xmlns="http://www.w3.org/2000/svg">
<path opacity="0.4" fill-rule="evenodd" clip-rule="evenodd" d="M16 32C24.8366 32 32 24.8366 32 16C32 7.16344 24.8366 0 16 0C7.16344 0 0 7.16344 0 16C0 24.8366 7.16344 32 16 32ZM20.0409 9.53523C20.7104 8.86576 21.7958 8.86576 22.4653 9.53523C23.1348 10.2047 23.1348 11.2901 22.4653 11.9596L18.4244 16.0005L22.4646 20.0408C23.1341 20.7103 23.1341 21.7957 22.4646 22.4652C21.7952 23.1347 20.7097 23.1347 20.0403 22.4652L16 18.4249L11.9597 22.4652C11.2902 23.1347 10.2048 23.1347 9.53535 22.4652C8.86588 21.7957 8.86588 20.7103 9.53535 20.0408L13.5756 16.0005L9.53469 11.9596C8.86522 11.2901 8.86522 10.2047 9.53469 9.53523C10.2042 8.86576 11.2896 8.86576 11.9591 9.53523L16 13.5762L20.0409 9.53523Z" fill="white"/>
</svg>
