<svg width="1440" height="353" viewBox="0 0 1440 353" fill="none" xmlns="http://www.w3.org/2000/svg">
<g clip-path="url(#clip0_212_4)">
<path opacity="0.2" d="M-301 21.1295C-274.171 15.2937 165.645 99.4164 396.372 96.5186C684.78 92.8964 1072.93 21.7332 1468.65 0M-5.88406 303.673C21.139 292.131 462.135 362.334 696.026 349.404C988.389 333.241 1405.88 254.083 1658 188.354M-286.947 34.2402C-260.109 28.1327 179.763 111.593 410.641 108.217C699.238 103.998 1088.78 32.4537 1477.67 8.62554M-272.894 47.7118C-246.047 41.3326 193.882 124.13 424.91 120.276C713.695 115.46 1104.63 43.5352 1486.68 17.612M-258.841 61.1835C-231.984 54.5326 208.001 136.667 439.179 132.336C728.153 126.922 1120.49 54.6166 1495.7 26.5984M-244.787 74.6551C-217.922 67.7325 222.119 149.204 453.449 144.395C742.611 138.384 1136.34 65.6981 1504.72 35.5849M-230.734 88.1267C-203.859 80.9324 236.238 161.741 467.718 156.454C757.068 149.846 1152.2 76.7795 1513.73 44.5713M-216.681 101.598C-189.797 94.1323 250.356 174.278 481.987 168.514C771.526 161.308 1168.05 87.861 1522.75 53.5577M-202.628 115.07C-175.735 107.332 264.475 186.815 496.256 180.573C785.983 172.771 1183.91 98.9424 1531.77 62.5442M-188.575 128.542C-161.672 120.532 278.593 199.352 510.526 192.632C800.441 184.233 1199.76 110.024 1540.78 71.5306M-174.522 142.013C-147.61 133.732 292.712 211.889 524.795 204.692C814.898 195.695 1215.62 121.105 1549.8 80.517M-160.469 155.485C-133.547 146.932 306.83 224.426 539.064 216.751C829.356 207.157 1231.47 132.187 1558.82 89.5035M-146.415 168.956C-119.485 160.132 320.949 236.963 553.333 228.81C843.814 218.619 1247.33 143.268 1567.83 98.4899M-132.362 182.428C-105.423 173.332 335.068 249.5 567.603 240.87C858.271 230.081 1263.18 154.35 1576.85 107.476M-118.309 195.9C-91.3602 186.532 349.186 262.037 581.872 252.929C872.729 241.544 1279.04 165.431 1585.87 116.463M-104.256 209.371C-77.2978 199.732 363.305 274.574 596.141 264.988C887.186 253.006 1294.89 176.513 1594.88 125.449M-90.2029 222.843C-63.2354 212.931 377.423 287.111 610.41 277.048C901.644 264.468 1310.75 187.594 1603.9 134.436M-76.1498 236.315C-49.173 226.131 391.542 299.648 624.679 289.107C916.101 275.93 1326.6 198.675 1612.92 143.422M-62.0967 249.786C-35.1106 239.331 405.66 312.185 638.949 301.166C930.559 287.392 1342.46 209.757 1621.93 152.409M-48.0435 263.258C-21.0482 252.531 419.779 324.722 653.218 313.226C945.017 298.854 1358.31 220.838 1630.95 161.395M-33.9903 276.729C-6.98577 265.731 433.898 337.259 667.487 325.285C959.474 310.317 1374.17 231.92 1639.97 170.381M-19.9372 290.201C7.07658 278.931 448.016 349.796 681.756 337.344C973.932 321.779 1390.02 243.001 1648.98 179.368" stroke="#08C8D1"/>
</g>
<defs>
<clipPath id="clip0_212_4">
<rect width="1440" height="353" fill="white"/>
</clipPath>
</defs>
</svg>
