<svg width="1440" height="353" viewBox="0 0 1440 353" fill="none" xmlns="http://www.w3.org/2000/svg">
<g clip-path="url(#clip0_212_4)">
<path opacity="0.2" d="M1740 21.0693C1713.6 15.2501 1280.74 99.1331 1053.66 96.2436C769.819 92.6317 387.816 21.6713 -1.64507 0M1449.55 302.808C1422.96 291.299 988.941 361.301 758.752 348.408C471.014 332.292 60.1324 253.359 -188 187.818M1726.17 34.1427C1699.76 28.0526 1266.84 111.275 1039.62 107.909C755.59 103.701 372.212 32.3613 -10.519 8.60097M1712.34 47.5759C1685.92 41.2149 1252.95 123.776 1025.58 119.934C741.361 115.131 356.608 43.4111 -19.3931 17.5618M1698.51 61.0091C1672.08 54.3772 1239.05 136.277 1011.53 131.959C727.133 126.56 341.004 54.461 -28.2673 26.5226M1684.68 74.4424C1658.24 67.5395 1225.16 148.779 997.49 143.984C712.904 137.99 325.4 65.5109 -37.1413 35.4835M1670.85 87.8756C1644.4 80.7018 1211.26 161.28 983.447 156.009C698.675 149.419 309.796 76.5608 -46.0154 44.4443M1657.02 101.309C1630.56 93.8641 1197.37 173.781 969.403 168.034C684.446 160.849 294.192 87.6107 -54.8893 53.4051M1643.18 114.742C1616.72 107.026 1183.47 186.283 955.36 180.059C670.218 172.278 278.588 98.6605 -63.7634 62.366M1629.35 128.175C1602.88 120.189 1169.58 198.784 941.316 192.083C655.989 183.708 262.984 109.71 -72.6376 71.3268M1615.52 141.609C1589.04 133.351 1155.68 211.285 927.273 204.108C641.76 195.137 247.38 120.76 -81.5116 80.2876M1601.69 155.042C1575.2 146.513 1141.79 223.787 913.229 216.133C627.531 206.567 231.776 131.81 -90.3855 89.2485M1587.86 168.475C1561.36 159.676 1127.89 236.288 899.186 228.158C613.302 217.996 216.172 142.86 -99.2596 98.2093M1574.03 181.908C1547.52 172.838 1114 248.789 885.143 240.183C599.073 229.426 200.568 153.91 -108.133 107.17M1560.2 195.342C1533.68 186 1100.1 261.291 871.099 252.208C584.845 240.856 184.964 164.96 -117.008 116.131M1546.37 208.775C1519.84 199.163 1086.21 273.792 857.056 264.233C570.616 252.285 169.36 176.01 -125.882 125.092M1532.54 222.208C1506 212.325 1072.31 286.293 843.012 276.258C556.387 263.715 153.756 187.06 -134.756 134.053M1518.71 235.641C1492.16 225.487 1058.42 298.795 828.969 288.283C542.158 275.144 138.152 198.109 -143.63 143.013M1504.88 249.075C1478.32 238.649 1044.52 311.296 814.925 300.308C527.93 286.574 122.548 209.159 -152.504 151.974M1491.05 262.508C1464.48 251.812 1030.63 323.797 800.882 312.333C513.701 298.003 106.944 220.209 -161.378 160.935M1477.22 275.941C1450.64 264.974 1016.73 336.299 786.838 324.358C499.472 309.433 91.3405 231.259 -170.252 169.896M1463.38 289.374C1436.8 278.136 1002.84 348.8 772.795 336.383C485.243 320.862 75.7364 242.309 -179.126 178.857" stroke="#08C8D1"/>
</g>
<defs>
<clipPath id="clip0_212_4">
<rect width="1440" height="353" fill="white"/>
</clipPath>
</defs>
</svg>
